HIERARCHY
ROOT mixamorig:Hips
{
	OFFSET 0.000000 104.274902 0.000000
	CHANNELS 6 Xposition Yposition Zposition Xrotation Yrotation Zrotation
	JOINT mixamorig:Spine
	{
		OFFSET 0.000000 10.181549 0.131524
		CHANNELS 6 Xposition Yposition Zposition Xrotation Yrotation Zrotation
		JOINT mixamorig:Spine1
		{
			OFFSET 0.000000 9.893990 -1.470706
			CHANNELS 3 Xrotation Yrotation Zrotation
			JOINT mixamorig:Spine2
			{
				OFFSET 0.000000 9.220787 -1.370637
				CHANNELS 3 Xrotation Yrotation Zrotation
				JOINT mixamorig:Neck
				{
					OFFSET 0.000000 16.740372 -2.049022
					CHANNELS 6 Xposition Yposition Zposition Xrotation Yrotation Zrotation
					JOINT mixamorig:Head
					{
						OFFSET 0.000000 9.617859 1.684976
						CHANNELS 6 Xposition Yposition Zposition Xrotation Yrotation Zrotation
						JOINT mixamorig:HeadTop_End
						{
							OFFSET 0.000000 22.037384 7.501072
							CHANNELS 6 Xposition Yposition Zposition Xrotation Yrotation Zrotation
							End Site
							{
								OFFSET 0.000000 23.106567 -2.828246
							}
						}
					}
				}
				JOINT mixamorig:RightShoulder
				{
					OFFSET -4.570000 11.014877 -2.160840
					CHANNELS 6 Xposition Yposition Zposition Xrotation Yrotation Zrotation
					JOINT mixamorig:RightArm
					{
						OFFSET -10.592867 -0.524796 -2.232105
						CHANNELS 3 Xrotation Yrotation Zrotation
						JOINT mixamorig:RightForeArm
						{
							OFFSET -27.841497 0.000000 -0.000002
							CHANNELS 3 Xrotation Yrotation Zrotation
							JOINT mixamorig:RightHand
							{
								OFFSET -28.328812 0.000000 -0.000001
								CHANNELS 3 Xrotation Yrotation Zrotation
								JOINT mixamorig:RightHandThumb1
								{
									OFFSET -2.464798 -1.573990 2.681911
									CHANNELS 6 Xposition Yposition Zposition Xrotation Yrotation Zrotation
									JOINT mixamorig:RightHandThumb2
									{
										OFFSET -3.244781 -1.873383 1.873376
										CHANNELS 3 Xrotation Yrotation Zrotation
										JOINT mixamorig:RightHandThumb3
										{
											OFFSET -2.646263 -1.527817 1.527818
											CHANNELS 6 Xposition Yposition Zposition Xrotation Yrotation Zrotation
											JOINT mixamorig:RightHandThumb4
											{
												OFFSET -1.994591 -1.151581 1.151575
												CHANNELS 6 Xposition Yposition Zposition Xrotation Yrotation Zrotation
												End Site
												{
													OFFSET -1.860176 -1.142715 1.365483
												}
											}
										}
									}
								}
								JOINT mixamorig:RightHandIndex1
								{
									OFFSET -9.108299 -0.517883 2.259803
									CHANNELS 6 Xposition Yposition Zposition Xrotation Yrotation Zrotation
									JOINT mixamorig:RightHandIndex2
									{
										OFFSET -3.699997 0.000000 0.000000
										CHANNELS 3 Xrotation Yrotation Zrotation
										JOINT mixamorig:RightHandIndex3
										{
											OFFSET -2.850006 0.000000 0.000000
											CHANNELS 3 Xrotation Yrotation Zrotation
											JOINT mixamorig:RightHandIndex4
											{
												OFFSET -2.772194 0.000000 0.000000
												CHANNELS 3 Xrotation Yrotation Zrotation
												End Site
												{
													OFFSET -2.772202 0.000000 -0.000484
												}
											}
										}
									}
								}
								JOINT mixamorig:RightHandMiddle1
								{
									OFFSET -9.532501 0.000000 -0.000000
									CHANNELS 6 Xposition Yposition Zposition Xrotation Yrotation Zrotation
									JOINT mixamorig:RightHandMiddle2
									{
										OFFSET -3.699997 0.000000 0.000000
										CHANNELS 3 Xrotation Yrotation Zrotation
										JOINT mixamorig:RightHandMiddle3
										{
											OFFSET -2.949997 0.000000 0.000000
											CHANNELS 3 Xrotation Yrotation Zrotation
											JOINT mixamorig:RightHandMiddle4
											{
												OFFSET -2.946594 0.000000 0.000000
												CHANNELS 3 Xrotation Yrotation Zrotation
												End Site
												{
													OFFSET -2.946602 0.000000 -0.000982
												}
											}
										}
									}
								}
								JOINT mixamorig:RightHandRing1
								{
									OFFSET -9.103600 -0.043106 -1.865100
									CHANNELS 6 Xposition Yposition Zposition Xrotation Yrotation Zrotation
									JOINT mixamorig:RightHandRing2
									{
										OFFSET -3.379303 0.000000 0.000000
										CHANNELS 3 Xrotation Yrotation Zrotation
										JOINT mixamorig:RightHandRing3
										{
											OFFSET -2.889694 0.000000 0.000000
											CHANNELS 3 Xrotation Yrotation Zrotation
											JOINT mixamorig:RightHandRing4
											{
												OFFSET -2.638802 0.000000 0.000000
												CHANNELS 3 Xrotation Yrotation Zrotation
												End Site
												{
													OFFSET -2.638802 0.000000 0.004218
												}
											}
										}
									}
								}
								JOINT mixamorig:RightHandPinky1
								{
									OFFSET -8.076698 -0.486725 -3.806299
									CHANNELS 6 Xposition Yposition Zposition Xrotation Yrotation Zrotation
									JOINT mixamorig:RightHandPinky2
									{
										OFFSET -3.600006 0.000000 0.000000
										CHANNELS 3 Xrotation Yrotation Zrotation
										JOINT mixamorig:RightHandPinky3
										{
											OFFSET -2.099998 0.000000 0.000000
											CHANNELS 3 Xrotation Yrotation Zrotation
											JOINT mixamorig:RightHandPinky4
											{
												OFFSET -2.115791 0.000000 0.000000
												CHANNELS 3 Xrotation Yrotation Zrotation
												End Site
												{
													OFFSET -2.115799 0.000000 0.000174
												}
											}
										}
									}
								}
							}
						}
					}
				}
				JOINT mixamorig:LeftShoulder
				{
					OFFSET 4.570400 11.014679 -2.160816
					CHANNELS 6 Xposition Yposition Zposition Xrotation Yrotation Zrotation
					JOINT mixamorig:LeftArm
					{
						OFFSET 10.592373 -0.524597 -2.232116
						CHANNELS 3 Xrotation Yrotation Zrotation
						JOINT mixamorig:LeftForeArm
						{
							OFFSET 27.841488 0.000000 0.000001
							CHANNELS 3 Xrotation Yrotation Zrotation
							JOINT mixamorig:LeftHand
							{
								OFFSET 28.328808 0.000000 -0.000000
								CHANNELS 3 Xrotation Yrotation Zrotation
								JOINT mixamorig:LeftHandThumb1
								{
									OFFSET 2.466103 -1.576202 2.681698
									CHANNELS 6 Xposition Yposition Zposition Xrotation Yrotation Zrotation
									JOINT mixamorig:LeftHandThumb2
									{
										OFFSET 3.243317 -1.872528 1.872530
										CHANNELS 3 Xrotation Yrotation Zrotation
										JOINT mixamorig:LeftHandThumb3
										{
											OFFSET 2.647881 -1.528763 1.528754
											CHANNELS 6 Xposition Yposition Zposition Xrotation Yrotation Zrotation
											JOINT mixamorig:LeftHandThumb4
											{
												OFFSET 1.998924 -1.154083 1.154080
												CHANNELS 6 Xposition Yposition Zposition Xrotation Yrotation Zrotation
												End Site
												{
													OFFSET 1.884041 -1.149155 1.337651
												}
											}
										}
									}
								}
								JOINT mixamorig:LeftHandIndex1
								{
									OFFSET 9.109299 -0.518005 2.259900
									CHANNELS 6 Xposition Yposition Zposition Xrotation Yrotation Zrotation
									JOINT mixamorig:LeftHandIndex2
									{
										OFFSET 3.699997 0.000000 0.000000
										CHANNELS 3 Xrotation Yrotation Zrotation
										JOINT mixamorig:LeftHandIndex3
										{
											OFFSET 2.850006 0.000000 0.000000
											CHANNELS 3 Xrotation Yrotation Zrotation
											JOINT mixamorig:LeftHandIndex4
											{
												OFFSET 2.774895 0.000000 0.000000
												CHANNELS 3 Xrotation Yrotation Zrotation
												End Site
												{
													OFFSET 2.774902 0.000000 -0.000072
												}
											}
										}
									}
								}
								JOINT mixamorig:LeftHandMiddle1
								{
									OFFSET 9.533401 0.000000 0.000000
									CHANNELS 6 Xposition Yposition Zposition Xrotation Yrotation Zrotation
									JOINT mixamorig:LeftHandMiddle2
									{
										OFFSET 3.699997 0.000000 0.000000
										CHANNELS 3 Xrotation Yrotation Zrotation
										JOINT mixamorig:LeftHandMiddle3
										{
											OFFSET 2.949997 0.000000 0.000000
											CHANNELS 3 Xrotation Yrotation Zrotation
											JOINT mixamorig:LeftHandMiddle4
											{
												OFFSET 2.952896 0.000000 0.000000
												CHANNELS 3 Xrotation Yrotation Zrotation
												End Site
												{
													OFFSET 2.952904 0.000000 0.000165
												}
											}
										}
									}
								}
								JOINT mixamorig:LeftHandRing1
								{
									OFFSET 9.104500 -0.042999 -1.865101
									CHANNELS 6 Xposition Yposition Zposition Xrotation Yrotation Zrotation
									JOINT mixamorig:LeftHandRing2
									{
										OFFSET 3.149994 0.000000 0.000000
										CHANNELS 3 Xrotation Yrotation Zrotation
										JOINT mixamorig:LeftHandRing3
										{
											OFFSET 2.950005 0.000000 0.000000
											CHANNELS 3 Xrotation Yrotation Zrotation
											JOINT mixamorig:LeftHandRing4
											{
												OFFSET 2.644302 0.000000 0.000000
												CHANNELS 3 Xrotation Yrotation Zrotation
												End Site
												{
													OFFSET 2.644302 0.000000 0.000083
												}
											}
										}
									}
								}
								JOINT mixamorig:LeftHandPinky1
								{
									OFFSET 8.077805 -0.486893 -3.806302
									CHANNELS 6 Xposition Yposition Zposition Xrotation Yrotation Zrotation
									JOINT mixamorig:LeftHandPinky2
									{
										OFFSET 3.600006 0.000000 0.000000
										CHANNELS 3 Xrotation Yrotation Zrotation
										JOINT mixamorig:LeftHandPinky3
										{
											OFFSET 2.099998 0.000000 0.000000
											CHANNELS 3 Xrotation Yrotation Zrotation
											JOINT mixamorig:LeftHandPinky4
											{
												OFFSET 2.125496 0.000000 0.000000
												CHANNELS 3 Xrotation Yrotation Zrotation
												End Site
												{
													OFFSET 2.125504 0.000000 -0.001254
												}
											}
										}
									}
								}
							}
						}
					}
				}
			}
		}
	}
	JOINT mixamorig:RightUpLeg
	{
		OFFSET -8.207800 -6.751701 -1.599544
		CHANNELS 6 Xposition Yposition Zposition Xrotation Yrotation Zrotation
		JOINT mixamorig:RightLeg
		{
			OFFSET 0.000004 -44.370152 0.345934
			CHANNELS 3 Xrotation Yrotation Zrotation
			JOINT mixamorig:RightFoot
			{
				OFFSET 0.000004 -44.423664 -3.043535
				CHANNELS 3 Xrotation Yrotation Zrotation
				JOINT mixamorig:RightToeBase
				{
					OFFSET 0.000001 -8.728691 10.710592
					CHANNELS 3 Xrotation Yrotation Zrotation
					JOINT mixamorig:RightToe_End
					{
						OFFSET 0.000000 -0.000665 9.278101
						CHANNELS 3 Xrotation Yrotation Zrotation
						End Site
						{
							OFFSET 0.000000 -0.000665 9.278103
						}
					}
				}
			}
		}
	}
	JOINT mixamorig:LeftUpLeg
	{
		OFFSET 8.207800 -6.751701 -1.599544
		CHANNELS 6 Xposition Yposition Zposition Xrotation Yrotation Zrotation
		JOINT mixamorig:LeftLeg
		{
			OFFSET 0.000004 -44.370037 0.346940
			CHANNELS 3 Xrotation Yrotation Zrotation
			JOINT mixamorig:LeftFoot
			{
				OFFSET 0.000004 -44.423611 -3.044388
				CHANNELS 3 Xrotation Yrotation Zrotation
				JOINT mixamorig:LeftToeBase
				{
					OFFSET 0.000001 -8.728690 10.710592
					CHANNELS 3 Xrotation Yrotation Zrotation
					JOINT mixamorig:LeftToe_End
					{
						OFFSET 0.000000 -0.000680 9.278101
						CHANNELS 3 Xrotation Yrotation Zrotation
						End Site
						{
							OFFSET 0.000000 -0.000680 9.278101
						}
					}
				}
			}
		}
	}
}
MOTION
Frames: 4
Frame Time: 0.033333
0.091280 103.787468 1.492602 -0.938459 -0.862146 -1.542939 0.000000 10.181563 0.131525 1.067422 -0.247322 -1.498640 -3.842172 0.073780 -0.099636 -3.842111 0.079355 -0.101336 -0.000001 16.740366 -2.049022 -2.686811 -0.295109 -0.438853 -0.000000 9.617828 1.684984 -8.161560 -5.087352 -9.472940 0.000005 22.037354 7.501065 -0.000001 -0.000000 -0.000000 -4.570000 11.014864 -2.160841 2.690947 -4.329671 13.690330 3.833125 -5.529683 68.455257 -0.000004 14.391419 0.000014 12.089478 14.495097 -0.748331 -2.464782 -1.573988 2.681906 -3.437004 3.011808 -14.080143 17.425281 -14.677733 5.447154 -2.646270 -1.527808 1.527816 -19.316198 15.800133 -10.456061 -1.994603 -1.151580 1.151569 0.000001 0.000004 0.000005 -9.108286 -0.517875 2.259804 -1.632561 5.381385 12.050639 1.062523 -2.962995 39.448632 0.526578 -2.153021 27.484029 -0.000002 -0.000000 0.000000 -9.532486 -0.000001 -0.000004 -1.718309 0.626468 24.485053 0.834121 -2.661570 34.795688 0.545695 -2.189335 27.988597 0.000000 -0.000001 -0.000000 -9.103573 -0.043098 -1.865107 0.446046 -4.245929 31.539498 0.899627 -2.753365 36.182784 0.396157 -1.881375 23.780174 0.000001 -0.000000 0.000001 -8.076697 -0.486713 -3.806303 -10.096807 -16.487136 27.843403 0.609994 -2.306172 29.627766 0.400382 -1.890929 23.908613 -0.000000 -0.000000 -0.000001 4.570405 11.014673 -2.160815 2.943223 3.598767 -19.489856 13.981065 -17.191641 -55.001215 0.000002 -8.821657 0.000001 0.255701 -1.979923 -1.603723 2.466108 -1.576205 2.681702 -4.259352 -4.051486 21.939169 18.294674 13.388223 -14.220698 2.647880 -1.528762 1.528753 -19.037643 -14.370925 15.402406 1.998925 -1.154067 1.154085 -0.000003 0.000001 -0.000004 9.109300 -0.518006 2.259900 -1.881341 -2.315081 -19.330827 0.909268 3.136680 -32.326691 0.325779 1.928223 -19.179012 0.000001 0.000003 0.000001 9.533413 0.000003 -0.000003 0.210214 3.793579 -19.942810 0.798326 2.954331 -30.238600 0.575534 2.534255 -25.587886 0.000000 0.000003 -0.000001 9.104501 -0.042991 -1.865101 2.017383 7.498716 -27.733384 1.001655 3.277901 -33.977893 1.098214 3.416564 -35.631434 0.000001 0.000000 0.000000 8.077805 -0.486898 -3.806303 -6.408563 9.788549 -28.549098 0.931564 3.171600 -32.732083 0.639938 2.664444 -27.007835 -0.000000 0.000001 0.000001 -8.207801 -6.751698 -1.599545 -1.241660 -11.122844 -4.837844 10.281468 -6.655102 -1.786246 -4.177777 -0.728844 8.503830 -0.000007 -0.000000 0.000005 -0.000000 0.000001 0.000000 8.207798 -6.751688 -1.599543 -5.749517 7.487101 4.414254 16.334093 2.316277 2.045052 -8.402392 0.790160 -6.568244 0.000004 -0.000002 0.000001 -0.000000 0.000000 0.000000 
0.107263 103.751610 1.684636 -1.062379 -0.503726 -1.710027 0.000000 10.181549 0.131522 0.930668 -0.407881 -1.338531 -3.738690 0.026874 -0.035826 -3.738496 0.031989 -0.037665 -0.000002 16.740376 -2.049019 -2.562926 -0.319801 -0.410266 -0.000004 9.617849 1.684975 -8.471742 -5.157776 -9.848812 -0.000007 22.037369 7.501068 -0.000000 -0.000000 -0.000000 -4.569998 11.014891 -2.160840 2.701951 -4.424550 13.681458 3.839873 -4.986594 68.181537 -0.000013 14.715385 0.000036 11.650614 14.830607 -0.680051 -2.464812 -1.574003 2.681897 -3.437002 3.011807 -14.080142 17.717512 -15.521842 5.935944 -2.646270 -1.527808 1.527812 -19.024899 16.479640 -10.903180 -1.994582 -1.151589 1.151570 -0.000001 -0.000001 -0.000000 -9.108310 -0.517878 2.259797 -1.677136 5.480135 12.224159 1.067258 -2.968712 39.540081 0.536911 -2.172761 27.757865 -0.000003 -0.000000 0.000001 -9.532504 0.000010 -0.000007 -1.844161 0.820153 24.858929 0.828674 -2.653724 34.678291 0.553326 -2.203612 28.187438 -0.000001 0.000000 0.000001 -9.103596 -0.043113 -1.865107 0.314043 -4.039297 31.837902 0.893177 -2.744526 36.047963 0.398850 -1.887454 23.861937 0.000000 -0.000000 0.000001 -8.076702 -0.486710 -3.806310 -10.126586 -16.281825 28.664214 0.594554 -2.278826 29.241761 0.397579 -1.884599 23.823498 -0.000000 -0.000000 0.000001 4.570400 11.014716 -2.160815 2.957990 3.397134 -19.865656 11.757219 -17.180735 -54.847881 -0.000004 -7.093362 0.000017 1.875155 -0.627979 -1.989115 2.466100 -1.576207 2.681702 -4.259350 -4.051486 21.939169 18.129523 13.079742 -14.028489 2.647894 -1.528753 1.528758 -18.984977 -14.168706 15.279085 1.998929 -1.154081 1.154087 -0.000001 -0.000003 -0.000002 9.109276 -0.518022 2.259901 -1.619785 -2.240406 -18.623064 0.891955 3.109194 -32.008807 0.339536 1.967305 -19.583918 0.000001 0.000002 -0.000000 9.533398 0.000003 -0.000000 0.267555 3.938906 -19.340072 0.782388 2.926858 -29.928110 0.573303 2.529591 -25.537275 0.000000 0.000002 0.000001 9.104492 -0.043003 -1.865101 2.068125 7.668033 -27.050537 0.931618 3.171668 -32.732811 1.094168 3.410929 -35.563658 0.000001 -0.000000 0.000000 8.077792 -0.486903 -3.806305 -6.396095 9.778082 -28.053078 0.912926 3.142465 -32.393685 0.623241 2.631448 -26.646265 -0.000000 0.000001 0.000000 -8.207801 -6.751709 -1.599544 -0.710340 -11.342958 -4.712073 9.949942 -6.805930 -1.626852 -4.202594 -0.728083 8.620172 -0.063125 0.000004 0.000001 -0.000000 -0.000002 -0.000000 8.207800 -6.751699 -1.599544 -5.699909 7.353484 4.477365 16.616687 2.080945 2.308603 -8.546162 0.793332 -6.570655 -0.167528 -0.000003 -0.000000 -0.000000 0.000001 -0.000000 
0.127987 103.660431 1.902904 -1.240064 -0.228054 -1.802159 -0.000000 10.181548 0.131523 0.947867 -0.592033 -1.274706 -3.624811 -0.026512 0.015662 -3.624519 -0.021851 0.013697 -0.000001 16.740356 -2.049017 -2.426526 -0.338630 -0.379101 -0.000002 9.617863 1.684977 -8.818320 -5.088314 -10.454445 0.000004 22.037369 7.501081 0.000003 -0.000000 0.000000 -4.569995 11.014869 -2.160837 2.737881 -4.482431 13.976211 2.835628 -4.781863 67.631188 -0.000007 13.481060 0.000019 11.030785 15.279521 -0.709846 -2.464786 -1.574001 2.681912 -3.437002 3.011814 -14.080147 17.749261 -15.610365 5.987928 -2.646265 -1.527800 1.527810 -18.932946 16.776664 -11.083740 -1.994590 -1.151584 1.151566 0.000004 -0.000003 -0.000000 -9.108294 -0.517879 2.259809 -1.597018 5.280123 12.053282 1.059125 -2.958863 39.382912 0.547863 -2.193381 28.044822 0.000000 0.000001 0.000000 -9.532495 -0.000003 0.000003 -1.755660 0.764134 24.253145 0.820707 -2.642187 34.505842 0.556475 -2.209506 28.269689 -0.000001 -0.000001 -0.000000 -9.103597 -0.043099 -1.865098 0.362587 -4.104824 31.312162 0.863007 -2.702618 35.412905 0.401219 -1.892813 23.933953 -0.000001 0.000001 0.000001 -8.076704 -0.486715 -3.806301 -10.064025 -16.348246 28.919168 0.574286 -2.242282 28.728138 0.391017 -1.869651 23.622848 -0.000000 0.000001 0.000000 4.570405 11.014686 -2.160812 2.972874 3.087619 -20.358323 9.533198 -17.511475 -54.308050 -0.000014 -5.610389 -0.000003 5.109592 1.717586 -2.556825 2.466104 -1.576203 2.681698 -4.259354 -4.051484 21.939167 18.055600 12.941965 -13.943327 2.647876 -1.528766 1.528753 -18.992852 -14.766398 15.529811 1.998930 -1.154082 1.154083 0.000003 0.000008 -0.000002 9.109297 -0.518025 2.259898 -1.454727 -2.246075 -17.870413 0.865233 3.066076 -31.512727 0.343716 1.979034 -19.705487 0.000000 0.000002 0.000003 9.533394 -0.000002 -0.000002 0.312850 4.061280 -18.790573 0.764448 2.895511 -29.574692 0.577369 2.538077 -25.629366 -0.000001 -0.000002 -0.000001 9.104494 -0.043002 -1.865102 2.054931 7.700902 -26.539120 0.885238 3.098440 -31.884877 1.099558 3.418440 -35.654110 -0.000000 -0.000003 -0.000001 8.077808 -0.486898 -3.806303 -6.455301 9.675013 -27.547642 0.893041 3.110920 -32.028837 0.616443 2.617877 -26.497977 -0.000000 -0.000001 -0.000001 -8.207802 -6.751703 -1.599544 -1.262840 -11.419849 -4.893738 11.658726 -6.848590 -1.511108 -4.220328 -0.771663 8.947129 -1.327503 -0.000000 0.000001 -0.000000 -0.000000 0.000000 8.207798 -6.751704 -1.599544 -5.701873 7.372295 4.523452 17.155263 1.723136 2.489075 -8.767177 0.808162 -6.519861 -0.513215 -0.000005 0.000000 0.000000 -0.000000 0.000000 
0.126160 103.619553 2.119924 -1.447819 -0.072777 -1.836412 -0.000000 10.181556 0.131523 1.160650 -0.895203 -1.277764 -3.512587 -0.112179 0.061542 -3.512252 -0.107943 0.059662 -0.000001 16.740389 -2.049022 -2.332717 -0.319640 -0.395945 -0.000000 9.617846 1.684977 -8.974992 -4.793059 -11.289478 0.000004 22.037354 7.501073 0.000001 -0.000001 -0.000000 -4.569997 11.014907 -2.160841 2.754459 -4.322524 14.342569 0.915458 -4.924524 67.138997 -0.000001 10.981378 0.000023 11.032511 15.029133 -0.892087 -2.464808 -1.574001 2.681910 -3.437001 3.011808 -14.080145 17.523909 -15.025475 5.641665 -2.646271 -1.527797 1.527816 -18.963300 16.866817 -11.096217 -1.994580 -1.151578 1.151568 0.000004 -0.000000 0.000002 -9.108310 -0.517880 2.259805 -1.459878 5.037500 11.555123 1.040603 -2.936174 39.022616 0.553902 -2.204718 28.202691 -0.000000 0.000002 0.000001 -9.532498 0.000021 0.000000 -1.577712 0.592990 23.208646 0.813870 -2.632241 34.357470 0.556211 -2.208995 28.262464 -0.000000 -0.000002 -0.000001 -9.103611 -0.043105 -1.865099 0.504122 -4.325503 30.457142 0.823649 -2.646479 34.569872 0.401182 -1.892704 23.932455 0.000001 -0.000000 -0.000001 -8.076694 -0.486709 -3.806294 -9.821004 -16.633426 28.744257 0.561813 -2.219389 28.407706 0.383888 -1.853299 23.403665 -0.000000 0.000000 0.000000 4.570398 11.014690 -2.160816 2.929240 2.420752 -20.784928 8.770224 -19.076433 -53.002336 0.000006 -5.392693 -0.000014 8.762994 4.266985 -3.978837 2.466092 -1.576207 2.681703 -4.259349 -4.051486 21.939169 18.116863 13.056812 -14.014366 2.647868 -1.528762 1.528751 -19.010904 -15.676203 15.949023 1.998925 -1.154069 1.154084 -0.000003 0.000002 -0.000000 9.109276 -0.518008 2.259901 -1.408326 -2.296508 -17.383588 0.846828 3.035890 -31.166696 0.344237 1.980519 -19.721097 -0.000003 -0.000001 0.000001 9.533386 0.000002 -0.000001 0.347677 4.162350 -18.544659 0.753150 2.875540 -29.350276 0.584212 2.552281 -25.783428 0.000001 0.000001 0.000000 9.104488 -0.042992 -1.865102 2.014592 7.639824 -26.377156 0.879811 3.089733 -31.784545 1.110288 3.433321 -35.833491 -0.000001 0.000006 -0.000000 8.077803 -0.486903 -3.806300 -6.513866 9.584979 -27.304629 0.881735 3.092812 -31.820130 0.621891 2.628788 -26.617063 -0.000001 -0.000000 0.000000 -8.207803 -6.751709 -1.599544 -2.316030 -11.412604 -5.235193 14.134288 -6.779327 -1.421400 -3.506414 -0.819100 9.385930 -3.555323 -0.000005 -0.000001 0.000000 -0.000002 -0.000000 8.207798 -6.751707 -1.599544 -5.584401 7.526114 4.583210 17.455426 1.367741 2.551341 -8.511599 0.819605 -6.474216 -1.458383 0.000003 -0.000001 -0.000000 -0.000001 -0.000000 
